<?xml version="1.0" encoding="UTF-8"?>
<svg version="1.1" xmlns="http://www.w3.org/2000/svg" width="300" height="300">
<path d="M0 0 C1.98 0 3.96 0 6 0 C10.32143373 8.5441545 14.58487402 17.09782716 18.546875 25.81640625 C19.58117781 28.08241912 20.63543527 30.3393693 21.703125 32.58984375 C22.25484375 33.75644531 22.8065625 34.92304687 23.375 36.125 C24.12910156 37.70667969 24.12910156 37.70667969 24.8984375 39.3203125 C26 42 26 42 26 45 C26.66 45 27.32 45 28 45 C28.25652344 45.63421875 28.51304687 46.2684375 28.77734375 46.921875 C34.49910905 60.869882 40.69000693 74.60662119 47.51953125 88.046875 C49.08473159 91.16901606 50.51721755 94.32418702 51.90625 97.52734375 C53.38711272 100.87515126 54.94523294 104.18609482 56.5 107.5 C58.78119972 112.3654326 61.02845057 117.24173955 63.17578125 122.16796875 C63.76876285 123.4860179 64.41967617 124.7785512 65.10546875 126.05078125 C66 128 66 128 66 131 C66.66 131 67.32 131 68 131 C68.27714844 131.78246094 68.55429688 132.56492188 68.83984375 133.37109375 C69.20207031 134.38300781 69.56429687 135.39492187 69.9375 136.4375 C70.47697266 137.95150391 70.47697266 137.95150391 71.02734375 139.49609375 C71.76877639 141.90313745 71.76877639 141.90313745 73 143 C73.10177581 144.34174261 73.13517217 145.68876076 73.14044189 147.03434753 C73.14615204 147.90424316 73.15186218 148.77413879 73.15774536 149.6703949 C73.15942215 151.11395103 73.15942215 151.11395103 73.16113281 152.58666992 C73.16609772 153.59510956 73.17106262 154.60354919 73.17617798 155.64254761 C73.1908685 159.00519483 73.1976199 162.36779459 73.203125 165.73046875 C73.20887943 168.07530213 73.21463713 170.42013551 73.22039795 172.76496887 C73.23093327 177.70407327 73.23675651 182.64316132 73.24023438 187.58227539 C73.24566513 193.85218733 73.26956419 200.12187609 73.29820633 206.39171886 C73.31703595 211.25053993 73.32204941 216.10931001 73.32357025 220.96816444 C73.32656171 223.27496853 73.33446849 225.58177251 73.34775543 227.88854027 C73.5368295 263.29975711 73.5368295 263.29975711 68 278 C67.34 278 66.68 278 66 278 C65.731875 278.763125 65.46375 279.52625 65.1875 280.3125 C64.04865495 282.88988618 63.18583329 284.26954864 61 286 C60.34 286 59.68 286 59 286 C59 286.66 59 287.32 59 288 C51.48893854 292.59369738 45.36535077 293.81097904 36.625 293.625 C35.52679932 293.61533203 34.42859863 293.60566406 33.29711914 293.59570312 C25.30380291 293.38186692 18.88507422 292.31279817 12 288 C12 287.34 12 286.68 12 286 C10.02 285.34 8.04 284.68 6 284 C6 283.34 6 282.68 6 282 C5.38125 281.690625 4.7625 281.38125 4.125 281.0625 C2.75 280.375 1.375 279.6875 0 279 C0.42797202 273.29370646 2.84345952 269.58921384 6 265 C11.60087622 265.61042054 15.60664777 268.67354072 20.20898438 271.67382812 C27.0472231 275.97315155 33.55989429 277.6983209 41.66796875 276.58984375 C45.5364111 275.61139351 47.42760609 274.01158312 50 271 C51.29463262 268.06123317 52.22659938 265.11395512 53 262 C53.66 262 54.32 262 55 262 C55.28286443 247.32512388 55.49315068 232.65061776 55.62174606 217.9735508 C55.68309784 211.15542008 55.76640592 204.33900193 55.90527344 197.52197266 C56.03966598 190.92135781 56.10776047 184.32183908 56.13852692 177.71992111 C56.16040071 175.22356861 56.20309985 172.72729322 56.26876068 170.23170853 C56.72963853 151.95868234 53.13611353 138.73222374 44.42987823 122.64574814 C42.51540718 119.10334284 40.76099047 115.49578167 39 111.875 C38.00414289 109.91455666 37.00488324 107.95583208 36 106 C31.86948671 97.89564806 28.07592073 89.66798367 24.625 81.25 C21.94128403 74.75390248 18.97363253 68.4040068 15.96777344 62.05322266 C14.94175576 59.87642934 13.9270305 57.69461325 12.9140625 55.51171875 C12.21358397 54.0077928 11.51306399 52.50388614 10.8125 51 C10.49176514 50.30624268 10.17103027 49.61248535 9.84057617 48.89770508 C7.76549263 44.4610426 5.48051772 40.22403018 3 36 C2.34 36 1.68 36 1 36 C0.67 37.134375 0.34 38.26875 0 39.4375 C-1.8821184 45.14750172 -4.50448376 50.48637477 -7.13085938 55.88256836 C-9.05403213 59.86074425 -10.71083983 63.75846267 -12 68 C-12.66 68 -13.32 68 -14 68 C-14.11601562 68.71414062 -14.23203125 69.42828125 -14.3515625 70.1640625 C-15.03812607 73.16674413 -16.05596696 75.59206902 -17.375 78.375 C-17.90738281 79.50550781 -18.43976563 80.63601562 -18.98828125 81.80078125 C-20.54139982 85.05143825 -22.10512521 88.29697843 -23.66796875 91.54296875 C-24.63312929 93.54932681 -25.59796745 95.55583997 -26.5625 97.5625 C-27.04227295 98.56015381 -27.5220459 99.55780762 -28.01635742 100.58569336 C-31.23381667 107.30906606 -34.29525528 114.05134643 -37 121 C-37.66 121 -38.32 121 -39 121 C-39.17015625 121.6290625 -39.3403125 122.258125 -39.515625 122.90625 C-41.14249093 128.652202 -43.17833938 133.75013742 -46 139 C-46.8353125 140.7015625 -46.8353125 140.7015625 -47.6875 142.4375 C-49 145 -49 145 -50 146 C-51.34267413 146.08631874 -52.68974322 146.10706473 -54.03515625 146.09765625 C-54.84404297 146.09443359 -55.65292969 146.09121094 -56.48632812 146.08789062 C-57.33646484 146.07951172 -58.18660156 146.07113281 -59.0625 146.0625 C-59.91650391 146.05798828 -60.77050781 146.05347656 -61.65039062 146.04882812 C-63.76695663 146.03700373 -65.88348685 146.01906769 -68 146 C-67.23044011 142.77802941 -66.18985144 139.82028094 -64.9375 136.75 C-64.57527344 135.85796875 -64.21304688 134.9659375 -63.83984375 134.046875 C-63.42412109 133.03367188 -63.42412109 133.03367188 -63 132 C-62.34 132 -61.68 132 -61 132 C-60.90332031 131.33613281 -60.80664062 130.67226562 -60.70703125 129.98828125 C-59.80664955 126.18280058 -58.28187846 122.74059078 -56.6875 119.1875 C-56.39166016 118.51396484 -56.09582031 117.84042969 -55.79101562 117.14648438 C-53.98620975 113.07300243 -52.06106681 109.07723453 -50.05151367 105.10131836 C-48.07871906 101.15893544 -46.20224771 97.17017405 -44.3125 93.1875 C-43.87897217 92.27460205 -43.44544434 91.3617041 -42.9987793 90.42114258 C-42.10308578 88.53479477 -41.20765973 86.64831993 -40.3125 84.76171875 C-39.07702593 82.16207539 -37.83633044 79.56500251 -36.59375 76.96875 C-32.78058838 68.98519543 -29.0847883 60.97573004 -25.59301758 52.84643555 C-23.25521212 47.45849821 -20.64901377 42.23170378 -17.98022461 37.00146484 C-15.64108324 32.3819006 -13.52588872 27.7018434 -11.5 22.9375 C-8.13326406 15.0318835 -4.1568292 7.51468344 0 0 Z " fill="#2F1859" transform="translate(146,3)"/>
<path d="M0 0 C2.08476244 2.03541895 4.00524394 4.14139951 5.875 6.375 C7.6989499 8.54122198 9.44975639 10.40587772 11.5625 12.3125 C17.30177431 18.64041783 19.91554579 27.10289629 22.7890625 35.01953125 C23.95952647 37.9003829 25.38246307 40.35273133 27 43 C27.68266938 44.56780345 28.32907947 46.1519169 28.9375 47.75 C30.28276967 51.1799242 31.62829985 54.60609125 33.0625 58 C33.36285156 58.721875 33.66320312 59.44375 33.97265625 60.1875 C35.00740375 62.33017485 35.00740375 62.33017485 38 64 C39.0625 65.91796875 39.0625 65.91796875 40 68.1875 C40.3403125 68.99703125 40.680625 69.8065625 41.03125 70.640625 C41.3509375 71.41921875 41.670625 72.1978125 42 73 C42.495 74.134375 42.99 75.26875 43.5 76.4375 C44.71353835 79.31965359 45.86410684 82.21212245 47 85.125 C48.08437052 87.87539574 49.13596163 90.22156711 50.6875 92.75 C52 95 52 95 52.4375 98.1875 C52.623125 99.115625 52.80875 100.04375 53 101 C54.3153341 101.70151152 55.65117592 102.36525925 57 103 C58.6875 106.0625 58.6875 106.0625 60 109 C61.49743119 110.49743119 62.98824239 110.33202693 65.0625 110.5625 C66.361875 110.706875 67.66125 110.85125 69 111 C69.07000747 124.3103098 69.12306595 137.62057465 69.15543652 150.93103218 C69.17098533 157.1139191 69.19202261 163.29667858 69.22631836 169.47949219 C69.25930139 175.46420388 69.2769337 181.44879425 69.28463173 187.43358994 C69.29010627 189.69853496 69.30079262 191.96347457 69.31719017 194.22836685 C69.56025057 229.24503503 69.56025057 229.24503503 64 244 C63.34 244 62.68 244 62 244 C61.731875 244.763125 61.46375 245.52625 61.1875 246.3125 C60.04865495 248.88988618 59.18583329 250.26954864 57 252 C56.34 252 55.68 252 55 252 C55 252.66 55 253.32 55 254 C47.48893854 258.59369738 41.36535077 259.81097904 32.625 259.625 C30.97769897 259.61049805 30.97769897 259.61049805 29.29711914 259.59570312 C21.30380291 259.38186692 14.88507422 258.31279817 8 254 C8 253.34 8 252.68 8 252 C6.02 251.34 4.04 250.68 2 250 C2 249.34 2 248.68 2 248 C1.38125 247.690625 0.7625 247.38125 0.125 247.0625 C-1.25 246.375 -2.625 245.6875 -4 245 C-3.57202798 239.29370646 -1.15654048 235.58921384 2 231 C7.60087622 231.61042054 11.60664777 234.67354072 16.20898438 237.67382812 C23.0472231 241.97315155 29.55989429 243.6983209 37.66796875 242.58984375 C41.5364111 241.61139351 43.42760609 240.01158312 46 237 C47.29463262 234.06123317 48.22659938 231.11395512 49 228 C49.66 228 50.32 228 51 228 C51.28286443 213.32512388 51.49315068 198.65061776 51.62174606 183.9735508 C51.68309784 177.15542008 51.76640592 170.33900193 51.90527344 163.52197266 C52.03966598 156.92135781 52.10776047 150.32183908 52.13852692 143.71992111 C52.16040071 141.22356861 52.20309985 138.72729322 52.26876068 136.23170853 C52.72963853 117.95868234 49.13611353 104.73222374 40.42987823 88.64574814 C38.51540718 85.10334284 36.76099047 81.49578167 35 77.875 C34.00414289 75.91455666 33.00488324 73.95583208 32 72 C27.86948671 63.89564806 24.07592073 55.66798367 20.625 47.25 C17.9421196 40.75592502 14.97644391 34.40681138 11.97216797 28.05761719 C10.93667829 25.86597806 9.90725653 23.67156006 8.87890625 21.4765625 C8.16935257 19.96350333 7.4597188 18.45048172 6.75 16.9375 C6.42088623 16.23536377 6.09177246 15.53322754 5.75268555 14.80981445 C5.27955933 13.80374146 5.27955933 13.80374146 4.796875 12.77734375 C4.49587891 12.13651855 4.19488281 11.49569336 3.88476562 10.83544922 C3.04925044 9.10217021 2.15896891 7.3956006 1.265625 5.69140625 C0 3 0 3 0 0 Z " fill="#101010" transform="translate(150,37)"/>
<path d="M0 0 C1.65 0 3.3 0 5 0 C6.69423033 6.63244861 7.29715694 12.67179161 7.29052734 19.50170898 C7.29724457 20.51108521 7.30396179 21.52046143 7.31088257 22.5604248 C7.32976487 25.87236553 7.33378145 29.18410266 7.3359375 32.49609375 C7.34237084 34.81340109 7.3490996 37.13070763 7.35610962 39.44801331 C7.36805697 44.29552086 7.37179292 49.14295728 7.37060547 53.99047852 C7.37040212 60.18520639 7.39773312 66.37947637 7.43214989 72.57409573 C7.45444167 77.35693945 7.45844235 82.13967321 7.45738602 86.92256355 C7.45973741 89.20579675 7.46853476 91.4890332 7.48405075 93.77221489 C7.50376187 96.97143111 7.49785266 100.16966263 7.48583984 103.36889648 C7.49707886 104.30063187 7.50831787 105.23236725 7.51989746 106.19233704 C7.4469491 113.88133993 5.73192258 120.83672123 0.625 126.75 C-0.24125 127.4925 -1.1075 128.235 -2 129 C-4.09895283 131.32585177 -4.09895283 131.32585177 -6.1796875 133.66796875 C-11.40448486 137.49126467 -17.81856837 137.28602953 -24 137.1875 C-25.15242188 137.1865332 -25.15242188 137.1865332 -26.328125 137.18554688 C-30.97802946 137.14996087 -35.39231821 136.66436342 -40 136 C-43.37604492 135.97302247 -46.73493685 136.06206212 -50.109375 136.16015625 C-53 136 -53 136 -56 134 C-55.57202798 128.29370646 -53.15654048 124.58921384 -50 120 C-44.39912378 120.61042054 -40.39335223 123.67354072 -35.79101562 126.67382812 C-28.9527769 130.97315155 -22.44010571 132.6983209 -14.33203125 131.58984375 C-10.4635889 130.61139351 -8.57239391 129.01158312 -6 126 C-4.70536738 123.06123317 -3.77340062 120.11395512 -3 117 C-2.34 117 -1.68 117 -1 117 C-0.67 78.39 -0.34 39.78 0 0 Z " fill="#424242" transform="translate(202,148)"/>
<path d="M0 0 C4.64044862 0.55903263 4.64044862 0.55903263 6.22265625 2.49951172 C6.49980469 3.13646973 6.77695313 3.77342773 7.0625 4.4296875 C7.3817041 5.13706055 7.7009082 5.84443359 8.02978516 6.57324219 C8.5100415 7.7126123 8.5100415 7.7126123 9 8.875 C9.34466309 9.65004883 9.68932617 10.42509766 10.04443359 11.22363281 C10.73234413 12.77360844 11.41268294 14.32696934 12.08496094 15.88378906 C13.22650197 18.52383113 14.4231491 21.13694352 15.625 23.75 C16.00269531 24.59046875 16.38039062 25.4309375 16.76953125 26.296875 C17.70739 28.35718692 18.6671504 30.40754404 19.63671875 32.453125 C20.46623047 34.20882812 20.46623047 34.20882812 21.3125 36 C21.82425781 37.0725 22.33601563 38.145 22.86328125 39.25 C24 42 24 42 24 45 C24.66 45 25.32 45 26 45 C26.25652344 45.63421875 26.51304687 46.2684375 26.77734375 46.921875 C32.49910905 60.869882 38.69000693 74.60662119 45.51953125 88.046875 C47.08473159 91.16901606 48.51721755 94.32418702 49.90625 97.52734375 C51.38711272 100.87515126 52.94523294 104.18609482 54.5 107.5 C56.78119972 112.3654326 59.02845057 117.24173955 61.17578125 122.16796875 C61.76876285 123.4860179 62.41967617 124.7785512 63.10546875 126.05078125 C64 128 64 128 64 131 C64.66 131 65.32 131 66 131 C66.33 134.3 66.66 137.6 67 141 C56.13384581 134.79076903 49.5719776 121.66360033 46 110 C45.69095864 107.58653414 45.5034957 105.24469876 45.46875 102.8125 C45.3140625 102.214375 45.159375 101.61625 45 101 C44.39542969 100.71898438 43.79085937 100.43796875 43.16796875 100.1484375 C39.90404312 98.41943906 39.26700757 95.95279366 37.8125 92.625 C37.04873047 90.91183594 37.04873047 90.91183594 36.26953125 89.1640625 C35 86 35 86 34.44921875 83.6484375 C34.30097656 83.10445313 34.15273437 82.56046875 34 82 C33.01 81.505 33.01 81.505 32 81 C31.30367782 79.17142284 30.69218868 77.31016015 30.125 75.4375 C28.69527343 70.94559787 27.07677821 66.84303976 24.8828125 62.6796875 C23.13343352 59.35122307 22 56.77238854 22 53 C21.34 53 20.68 53 20 53 C18.44921875 50.83984375 18.44921875 50.83984375 16.6875 47.9375 C12.61697875 41.38084258 9.11614348 35.82853433 3 31 C0.20302521 27.17170097 -0.36250599 24.52957173 -0.29296875 19.82421875 C-0.28330078 18.66728516 -0.27363281 17.51035156 -0.26367188 16.31835938 C-0.23853516 15.12017578 -0.21339844 13.92199219 -0.1875 12.6875 C-0.17396484 11.46998047 -0.16042969 10.25246094 -0.14648438 8.99804688 C-0.11119261 5.99824655 -0.06188481 2.99935025 0 0 Z " fill="#BBA6E0" transform="translate(148,3)"/>
<path d="M0 0 C0.66 0 1.32 0 2 0 C2.28358537 3.76909924 2.52107447 7.53971756 2.75 11.3125 C2.83121094 12.38435547 2.91242188 13.45621094 2.99609375 14.56054688 C3.05410156 15.58857422 3.11210937 16.61660156 3.171875 17.67578125 C3.2347168 18.62364502 3.29755859 19.57150879 3.36230469 20.5480957 C3 23 3 23 1.13769531 24.78588867 C-1 26 -1 26 -3.375 26.75 C-11.04692483 30.40329754 -14.91146909 39.45899963 -17.765625 47.03125 C-17.98734375 47.6603125 -18.2090625 48.289375 -18.4375 48.9375 C-20.00492566 53.36211873 -22.30922031 57.3235094 -24.58984375 61.4140625 C-26.72940876 65.33758614 -28.37620684 69.41150347 -30.0078125 73.56640625 C-32.6728414 80.19368011 -35.70470665 86.41946215 -39.32104492 92.57226562 C-41.16456469 95.84367524 -42.21388612 98.50849049 -42.60546875 102.265625 C-43 106 -43 106 -45.0625 109 C-48.71754178 114.60791609 -47.27649088 122.60230824 -47 129 C-44.7522025 126.94766315 -43.9977758 125.99332739 -43 123 C-42.34 123 -41.68 123 -41 123 C-41.45082469 124.46067199 -41.91093537 125.91848032 -42.375 127.375 C-42.63023438 128.18710938 -42.88546875 128.99921875 -43.1484375 129.8359375 C-44 132 -44 132 -46 134 C-47.87939453 134.22705078 -47.87939453 134.22705078 -50.1328125 134.1953125 C-51.34130859 134.18564453 -51.34130859 134.18564453 -52.57421875 134.17578125 C-53.41597656 134.15902344 -54.25773437 134.14226562 -55.125 134.125 C-55.97449219 134.11597656 -56.82398437 134.10695312 -57.69921875 134.09765625 C-59.79959884 134.07405647 -61.89983444 134.03818483 -64 134 C-63.23044011 130.77802941 -62.18985144 127.82028094 -60.9375 124.75 C-60.57527344 123.85796875 -60.21304688 122.9659375 -59.83984375 122.046875 C-59.56269531 121.37140625 -59.28554687 120.6959375 -59 120 C-58.34 120 -57.68 120 -57 120 C-56.90332031 119.33613281 -56.80664062 118.67226562 -56.70703125 117.98828125 C-55.80664955 114.18280058 -54.28187846 110.74059078 -52.6875 107.1875 C-52.39166016 106.51396484 -52.09582031 105.84042969 -51.79101562 105.14648438 C-49.98933581 101.08005802 -48.06676935 97.09208876 -46.06030273 93.12329102 C-44.0372848 89.07213123 -42.12327696 84.96835388 -40.1875 80.875 C-36.22886138 72.52890702 -32.18083305 64.23707174 -28 56 C-27.34 56 -26.68 56 -26 56 C-25.82984375 55.443125 -25.6596875 54.88625 -25.484375 54.3125 C-25.24203125 53.549375 -24.9996875 52.78625 -24.75 52 C-24.51796875 51.2575 -24.2859375 50.515 -24.046875 49.75 C-22.92204004 46.79520966 -21.56701284 44.04970609 -20.1328125 41.23535156 C-13.95654386 29.04786974 -8.22003161 16.62568621 -3 4 C-2.34 4 -1.68 4 -1 4 C-0.67 2.68 -0.34 1.36 0 0 Z " fill="#180A32" transform="translate(142,15)"/>
<path d="M0 0 C2.08476244 2.03541895 4.00524394 4.14139951 5.875 6.375 C7.6989499 8.54122198 9.44975639 10.40587772 11.5625 12.3125 C17.30177431 18.64041783 19.91554579 27.10289629 22.7890625 35.01953125 C23.95952647 37.9003829 25.38246307 40.35273133 27 43 C27.68266938 44.56780345 28.32907947 46.1519169 28.9375 47.75 C30.28276967 51.1799242 31.62829985 54.60609125 33.0625 58 C33.36285156 58.721875 33.66320312 59.44375 33.97265625 60.1875 C35.00740375 62.33017485 35.00740375 62.33017485 38 64 C39.0625 65.91796875 39.0625 65.91796875 40 68.1875 C40.3403125 68.99703125 40.680625 69.8065625 41.03125 70.640625 C41.3509375 71.41921875 41.670625 72.1978125 42 73 C42.495 74.134375 42.99 75.26875 43.5 76.4375 C44.71353835 79.31965359 45.86410684 82.21212245 47 85.125 C48.08437052 87.87539574 49.13596163 90.22156711 50.6875 92.75 C52 95 52 95 52.4375 98.1875 C52.623125 99.115625 52.80875 100.04375 53 101 C54.3153341 101.70151152 55.65117592 102.36525925 57 103 C58.6875 106 58.6875 106 60 109 C60.33 109.66 60.66 110.32 61 111 C56.05 111.495 56.05 111.495 51 112 C50.67314209 111.28569824 50.34628418 110.57139648 50.00952148 109.83544922 C41.28838628 90.78128707 41.28838628 90.78128707 32 72 C27.86948671 63.89564806 24.07592073 55.66798367 20.625 47.25 C17.9421196 40.75592502 14.97644391 34.40681138 11.97216797 28.05761719 C10.93667829 25.86597806 9.90725653 23.67156006 8.87890625 21.4765625 C8.16935257 19.96350333 7.4597188 18.45048172 6.75 16.9375 C6.42088623 16.23536377 6.09177246 15.53322754 5.75268555 14.80981445 C5.43726807 14.13909912 5.12185059 13.46838379 4.796875 12.77734375 C4.49587891 12.13651855 4.19488281 11.49569336 3.88476562 10.83544922 C3.04925044 9.10217021 2.15896891 7.3956006 1.265625 5.69140625 C0 3 0 3 0 0 Z " fill="#13042E" transform="translate(150,37)"/>
<path d="M0 0 C2.475 0.495 2.475 0.495 5 1 C4.45639063 5.99201845 2.76578257 9.87405648 0.4375 14.25 C-2.57963622 20.0878585 -5.37776662 25.97458068 -8 32 C-10.45801128 37.62428334 -13.02237984 43.15783446 -15.8125 48.625 C-19.83065286 56.49911992 -23.49630092 64.52520304 -27.14379883 72.57666016 C-29.65512992 78.11155887 -32.24055176 83.58426046 -35 89 C-35.66 89 -36.32 89 -37 89 C-38.85375684 85.29248631 -38.45869719 81.04658888 -38 77 C-36.25 74 -36.25 74 -34 71 C-32.91966441 68.44976544 -31.96053999 65.87687354 -31.02734375 63.26953125 C-30 61 -30 61 -28.46484375 59.48046875 C-26.59531642 57.59099979 -26.26637599 56.06550397 -25.625 53.5 C-24.00177527 47.68835083 -21.58384989 42.43929764 -19 37 C-18.06090401 34.95906694 -17.12347793 32.91736489 -16.1875 30.875 C-15.68734375 29.79734375 -15.1871875 28.7196875 -14.671875 27.609375 C-13.44337146 24.95718511 -12.22614587 22.30098277 -11.015625 19.640625 C-10.32320666 18.13528324 -9.63050115 16.63007354 -8.9375 15.125 C-8.62127686 14.42358887 -8.30505371 13.72217773 -7.97924805 12.99951172 C-5.77482232 8.24238474 -3.15592948 4.18967415 0 0 Z " fill="#774AC5" transform="translate(135,49)"/>
<path d="M0 0 C0.33 0 0.66 0 1 0 C1.00410889 0.75095947 1.00821777 1.50191895 1.01245117 2.27563477 C1.04551331 5.705369 1.11617382 9.13335677 1.1875 12.5625 C1.19330078 13.74392578 1.19910156 14.92535156 1.20507812 16.14257812 C1.43347314 25.20224713 3.03152479 29.03152479 9.4375 35.4375 C13.98895617 39.98895617 17.98355326 45.30226727 21 51 C21 51.66 21 52.32 21 53 C21.66 53 22.32 53 23 53 C23.38671875 53.96679688 23.7734375 54.93359375 24.171875 55.9296875 C24.54771729 56.86893066 24.54771729 56.86893066 24.93115234 57.82714844 C25.47902585 59.19732224 26.02622166 60.56776721 26.57275391 61.93847656 C27.79624522 65.00480192 29.02741287 68.06628929 30.2890625 71.1171875 C30.64742187 71.98601562 31.00578125 72.85484375 31.375 73.75 C31.85066406 74.88695313 31.85066406 74.88695313 32.3359375 76.046875 C33 78 33 78 33 81 C33.99 81.33 34.98 81.66 36 82 C37.02734375 84.2578125 37.02734375 84.2578125 37.9375 87.125 C40.38233119 95.24404114 40.38233119 95.24404114 46 101 C46.67578125 103.08203125 46.67578125 103.08203125 47.3125 105.8125 C50.61543075 118.51481577 55.94674284 132.18184249 67 140 C67 138.35 67 136.7 67 135 C69.69504819 137.69504819 72 141.08360477 72 145 C64.58734177 145.36455696 64.58734177 145.36455696 62.1875 143.875 C60.58792616 141.34935709 59.33640788 138.67281577 58 136 C57.25556641 135.27683594 57.25556641 135.27683594 56.49609375 134.5390625 C54.44651024 132.43061367 53.77749627 129.98621977 52.81640625 127.25390625 C51.08484133 122.47346146 49.08610677 117.78121511 46.4375 113.4375 C44.00720827 109.31657055 42.60192408 104.76564396 41.0625 100.25 C40.11293382 97.88852268 40.11293382 97.88852268 38.08984375 96.18359375 C35.82722283 93.81947208 34.78005492 91.80938535 33.5 88.8125 C33.0771875 87.83925781 32.654375 86.86601563 32.21875 85.86328125 C31.8165625 84.91839844 31.414375 83.97351563 31 83 C30.3361343 81.49875825 29.66967184 79.99866076 29 78.5 C28.67902344 77.77296875 28.35804688 77.0459375 28.02734375 76.296875 C27.3026847 74.67672473 26.56438695 73.06264123 25.81640625 71.453125 C23.47432133 66.40414443 21.38612525 61.36357985 19.5 56.125 C17.63823472 51.16225029 16.0210316 48.36897242 12 45 C11.649375 44.278125 11.29875 43.55625 10.9375 42.8125 C10.14874878 40.8267009 10.14874878 40.8267009 8.07421875 40.13671875 C5.53211297 38.74358733 5.02211458 37.62197619 3.875 35 C2.7329698 32.43279162 2.01800698 31.01800698 0 29 C-1.64483231 22.40036418 -2.26077333 15.78010656 -2 9 C-2.66 8.67 -3.32 8.34 -4 8 C-2.68 5.36 -1.36 2.72 0 0 Z " fill="#360A83" transform="translate(147,3)"/>
<path d="M0 0 C0.66 0 1.32 0 2 0 C2.28358537 3.76909924 2.52107447 7.53971756 2.75 11.3125 C2.83121094 12.38435547 2.91242188 13.45621094 2.99609375 14.56054688 C3.05410156 15.58857422 3.11210937 16.61660156 3.171875 17.67578125 C3.2661377 19.0975769 3.2661377 19.0975769 3.36230469 20.5480957 C3 23 3 23 1.13769531 24.78588867 C-1 26 -1 26 -3.375 26.75 C-11.04692483 30.40329754 -14.91146909 39.45899963 -17.765625 47.03125 C-17.98734375 47.6603125 -18.2090625 48.289375 -18.4375 48.9375 C-20.0029049 53.35641441 -22.30050961 57.31341001 -24.5859375 61.39453125 C-25.72543849 63.49410904 -26.72248896 65.54331093 -27.625 67.75 C-29.15897677 71.37576327 -30.9964 74.6146069 -33 78 C-33.99 78 -34.98 78 -36 78 C-34.36184504 70.90132849 -31.49759498 64.73822108 -28.18554688 58.30859375 C-25.77345002 53.60697484 -23.57138147 48.86069851 -21.5 44 C-18.88678795 37.88807033 -16.01719356 31.95574409 -12.99804688 26.03515625 C-9.35137382 18.82744631 -6.16185531 11.43035999 -3 4 C-2.34 4 -1.68 4 -1 4 C-0.67 2.68 -0.34 1.36 0 0 Z " fill="#140431" transform="translate(142,15)"/>
<path d="M0 0 C0.33 0 0.66 0 1 0 C1.48834279 9.27851303 -1.08740467 14.38412155 -7.18359375 21.203125 C-12.68859881 26.64893646 -17.18463476 27.1614889 -24.75 27.125 C-25.92949219 27.13080078 -25.92949219 27.13080078 -27.1328125 27.13671875 C-31.85787887 27.1288698 -36.31732792 26.68380141 -41 26 C-44.37604492 25.97302247 -47.73493685 26.06206212 -51.109375 26.16015625 C-54 26 -54 26 -57 24 C-56.57202798 18.29370646 -54.15654048 14.58921384 -51 10 C-45.39912378 10.61042054 -41.39335223 13.67354072 -36.79101562 16.67382812 C-29.9527769 20.97315155 -23.44010571 22.6983209 -15.33203125 21.58984375 C-11.4635889 20.61139351 -9.57239391 19.01158312 -7 16 C-5.70536738 13.06123317 -4.77340062 10.11395512 -4 7 C-2.68 7 -1.36 7 0 7 C0 4.69 0 2.38 0 0 Z " fill="#525252" transform="translate(203,258)"/>
<path d="M0 0 C0.33 0 0.66 0 1 0 C2.12977503 5.43337057 2.14789532 10.70314954 2.14526367 16.22460938 C2.15030159 17.74765434 2.15030159 17.74765434 2.15544128 19.3014679 C2.16491969 22.64890779 2.16689264 25.99629753 2.16796875 29.34375 C2.1711828 31.67492697 2.17454698 34.00610373 2.17805481 36.33728027 C2.18403779 41.21948718 2.18589549 46.1016764 2.18530273 50.98388672 C2.185201 57.2383661 2.19886858 63.49273224 2.21607494 69.74718475 C2.22719329 74.55988079 2.22922201 79.37254939 2.22869301 84.18525696 C2.22987278 86.49132173 2.23429439 88.79738722 2.24202538 91.10343933 C2.2518245 94.32750397 2.24894771 97.551322 2.24291992 100.77539062 C2.24853943 101.72622025 2.25415894 102.67704987 2.25994873 103.6566925 C2.23689526 108.51012562 1.90034745 112.44418338 0 117 C-0.33 117 -0.66 117 -1 117 C-1.02324156 104.56002322 -1.04097507 92.12005166 -1.05181217 79.68005753 C-1.05701525 73.90274535 -1.0640658 68.12544811 -1.07543945 62.34814453 C-1.08636026 56.76548873 -1.09229621 51.18284724 -1.09487724 45.60018158 C-1.096715 43.47770716 -1.10030347 41.35523347 -1.10573006 39.2327652 C-1.1551941 19.07163364 -1.1551941 19.07163364 -0.22142029 10.30169678 C0.10997915 6.85675042 0.06649799 3.45789556 0 0 Z " fill="#2C2C2C" transform="translate(207,151)"/>
<path d="M0 0 C3.16211825 3.50091663 4.9890657 6.92870073 6.80078125 11.2109375 C8.29102217 14.67683982 9.89398204 18.08678831 11.5 21.5 C13.78180058 26.36514208 16.02845745 31.24175533 18.17578125 36.16796875 C18.76876285 37.4860179 19.41967617 38.7785512 20.10546875 40.05078125 C21 42 21 42 21 45 C21.66 45 22.32 45 23 45 C23.33 48.3 23.66 51.6 24 55 C12.9207468 48.66899817 6.959769 35.70233409 3 24 C3 23.34 3 22.68 3 22 C3.66 22 4.32 22 5 22 C5.99 24.64 6.98 27.28 8 30 C8.33 28.68 8.66 27.36 9 26 C9.66 26 10.32 26 11 26 C9.54237887 22.91632949 8.08377822 19.83312328 6.625 16.75 C6.2125 15.87730469 5.8 15.00460938 5.375 14.10546875 C4.77558594 12.83896484 4.77558594 12.83896484 4.1640625 11.546875 C3.79748535 10.77182617 3.4309082 9.99677734 3.05322266 9.19824219 C2.35895355 7.7491928 1.62979686 6.31627858 0.86474609 4.90332031 C0 3 0 3 0 0 Z " fill="#9E8EB9" transform="translate(191,89)"/>
<path d="M0 0 C0.66 0 1.32 0 2 0 C4.62306861 5.14121448 7.11858328 10.3343907 9.5625 15.5625 C9.85519775 16.18713135 10.14789551 16.8117627 10.44946289 17.45532227 C11.84232455 20.44540518 13.18881686 23.44222896 14.484375 26.4765625 C16.42442286 30.98667377 18.53318945 35.40865408 20.65820312 39.83398438 C23 44.78221615 23 44.78221615 23 47 C22.01 47 21.02 47 20 47 C20 46.34 20 45.68 20 45 C19.34 45 18.68 45 18 45 C17.59007812 44.08476563 17.18015625 43.16953125 16.7578125 42.2265625 C16.21898437 41.03804687 15.68015625 39.84953125 15.125 38.625 C14.59132812 37.44164062 14.05765625 36.25828125 13.5078125 35.0390625 C12.1903011 31.97752957 12.1903011 31.97752957 10 30 C10 29.01 10 28.02 10 27 C9.34 27 8.68 27 8 27 C7.773125 26.21625 7.54625 25.4325 7.3125 24.625 C6.25346172 21.7802755 6.25346172 21.7802755 3.5 21 C1 20 1 20 -0.3125 17.875 C-1.75362061 11.84849563 -1.00413397 6.0248038 0 0 Z " fill="#C3B0E3" transform="translate(153,12)"/>
<path d="M0 0 C4.64044862 0.55903263 4.64044862 0.55903263 6.22265625 2.49951172 C6.49980469 3.13646973 6.77695313 3.77342773 7.0625 4.4296875 C7.38226807 5.13786621 7.70203613 5.84604492 8.03149414 6.57568359 C8.35110107 7.33445801 8.67070801 8.09323242 9 8.875 C9.3395874 9.64279785 9.6791748 10.4105957 10.02905273 11.20166016 C10.71098423 12.74469793 11.38613657 14.29075097 12.05419922 15.83984375 C13.69001737 19.5759612 15.50695995 23.22842213 17.28515625 26.8984375 C18 29 18 29 17 32 C16.29423828 30.48019531 16.29423828 30.48019531 15.57421875 28.9296875 C14.9453571 27.57810425 14.31644834 26.22654291 13.6875 24.875 C13.37876953 24.20984375 13.07003906 23.5446875 12.75195312 22.859375 C11.30558072 19.75348057 9.83613773 16.68115288 8.26953125 13.6328125 C7 11 7 11 7 9 C6.34 9 5.68 9 5 9 C4.36345748 20.53730107 4.36345748 20.53730107 8.125 31.265625 C9 33 9 33 9 36 C5.02778602 32.91050024 2.31830693 30.55678236 0 26 C-0.34057617 23.0456543 -0.34057617 23.0456543 -0.29296875 19.82421875 C-0.28330078 18.66728516 -0.27363281 17.51035156 -0.26367188 16.31835938 C-0.23853516 15.12017578 -0.21339844 13.92199219 -0.1875 12.6875 C-0.17396484 11.46998047 -0.16042969 10.25246094 -0.14648438 8.99804688 C-0.11119261 5.99824655 -0.06188481 2.99935025 0 0 Z " fill="#927BBB" transform="translate(148,3)"/>
<path d="M0 0 C3.04149976 2.02766651 3.47491315 2.49302299 4.796875 5.640625 C5.11245361 6.37482666 5.42803223 7.10902832 5.75317383 7.86547852 C6.24660278 9.04581665 6.24660278 9.04581665 6.75 10.25 C9.26965584 16.11981931 11.878562 21.88805305 14.8125 27.5625 C17.39719042 32.63156181 19.40058279 37.54316482 21 43 C20.34 43 19.68 43 19 43 C19 44.65 19 46.3 19 48 C16.18167487 46.59083743 15.97406539 44.92219617 15 42 C15 41.01 15 40.02 15 39 C14.34 39 13.68 39 13 39 C12.67 36.69 12.34 34.38 12 32 C11.34 32 10.68 32 10 32 C9.67 29.36 9.34 26.72 9 24 C8.34 24 7.68 24 7 24 C6.87044922 23.14728516 6.87044922 23.14728516 6.73828125 22.27734375 C5.95682284 17.98290716 5.16591587 14.85301178 2.375 11.4375 C-0.67263311 7.63019295 -0.41767393 4.76148285 0 0 Z " fill="#BCA8E0" transform="translate(181,72)"/>
<path d="M0 0 C0.01458252 0.55461914 0.02916504 1.10923828 0.04418945 1.68066406 C0.11886897 4.20446242 0.21546025 6.72696654 0.3125 9.25 C0.33505859 10.12269531 0.35761719 10.99539062 0.38085938 11.89453125 C0.41630859 12.73886719 0.45175781 13.58320313 0.48828125 14.453125 C0.51446533 15.22817383 0.54064941 16.00322266 0.56762695 16.80175781 C0.93679114 19.51895211 0.93679114 19.51895211 4 23 C-1.94 23 -7.88 23 -14 23 C-13.505 21.515 -13.505 21.515 -13 20 C-12.34 20 -11.68 20 -11 20 C-10.82984375 19.45472656 -10.6596875 18.90945312 -10.484375 18.34765625 C-4.58803419 0 -4.58803419 0 0 0 Z " fill="#11032B" transform="translate(92,126)"/>
<path d="M0 0 C0.33 0 0.66 0 1 0 C1.00410889 0.75095947 1.00821777 1.50191895 1.01245117 2.27563477 C1.04551331 5.705369 1.11617382 9.13335677 1.1875 12.5625 C1.19330078 13.74392578 1.19910156 14.92535156 1.20507812 16.14257812 C1.43347314 25.20224713 3.03152479 29.03152479 9.4375 35.4375 C16.21078198 42.21078198 22.02730675 50.49365924 24 60 C23.578125 62.27734375 23.578125 62.27734375 23 64 C22.68546875 63.28714844 22.3709375 62.57429688 22.046875 61.83984375 C17.72122022 51.14549693 17.72122022 51.14549693 10 43 C10 42.34 10 41.68 10 41 C9.38382813 40.7525 8.76765625 40.505 8.1328125 40.25 C5.59373673 38.76189698 5.03952737 37.66177685 3.875 35 C2.7329698 32.43279162 2.01800698 31.01800698 0 29 C-1.64483231 22.40036418 -2.26077333 15.78010656 -2 9 C-2.66 8.67 -3.32 8.34 -4 8 C-2.68 5.36 -1.36 2.72 0 0 Z " fill="#450CA8" transform="translate(147,3)"/>
<path d="M0 0 C4.76833849 0.52379476 8.08889722 2.80626509 12 5.375 C18.83708169 9.70285827 24.93644689 11.81698293 33 13 C33 13.33 33 13.66 33 14 C25.37685526 14.23576736 18.41430591 13.83717315 11 12 C11 11.34 11 10.68 11 10 C10.00419922 9.90912109 10.00419922 9.90912109 8.98828125 9.81640625 C0.21792619 8.98418278 0.21792619 8.98418278 -4 8 C-2.66666667 5.33333333 -1.33333333 2.66666667 0 0 Z " fill="#737373" transform="translate(152,268)"/>
<path d="M0 0 C1.04475584 2.69736963 1.06611688 3.8153191 0.07421875 6.5859375 C-0.38339844 7.50632812 -0.84101562 8.42671875 -1.3125 9.375 C-2.73930221 12.32633061 -4.01751379 15.05582522 -5 18.1875 C-6.16818118 21.47300956 -7.87012703 24.06641562 -9.765625 26.9765625 C-11.52742457 29.86457572 -12.71297832 32.87437592 -14 36 C-14.66 36.99 -15.32 37.98 -16 39 C-16.27955314 41.34503003 -16.27955314 41.34503003 -16.1875 43.875 C-16.17332031 44.76058594 -16.15914063 45.64617187 -16.14453125 46.55859375 C-16.05524716 49.10097831 -16.05524716 49.10097831 -15.375 51.9375 C-15 54 -15 54 -17 57 C-17.66 57 -18.32 57 -19 57 C-20.6439054 51.40002957 -21.30968075 44.38282469 -19.17578125 38.87109375 C-18.17634832 37.21032602 -17.08992679 35.60283351 -16 34 C-15.27954236 32.0187415 -14.59218657 30.02330411 -14 28 C-13.34 28 -12.68 28 -12 28 C-11.67 26.02 -11.34 24.04 -11 22 C-10.34 22 -9.68 22 -9 22 C-8.896875 21.113125 -8.79375 20.22625 -8.6875 19.3125 C-7.96353911 15.82432483 -6.84972246 14.01436253 -5 11 C-3.90227488 8.38831199 -2.87731755 5.75607234 -1.8671875 3.109375 C-1 1 -1 1 0 0 Z " fill="#340489" transform="translate(114,87)"/>
<path d="M0 0 C0.81703122 2.34180923 1.16013611 3.56294344 0.29296875 5.9296875 C-0.07183594 6.57164063 -0.43664062 7.21359375 -0.8125 7.875 C-2.59891391 11.17584784 -3.91762401 14.39208003 -5 18 C-5.66 18 -6.32 18 -7 18 C-7.17402344 19.07121094 -7.17402344 19.07121094 -7.3515625 20.1640625 C-8.03812607 23.16674413 -9.05596696 25.59206902 -10.375 28.375 C-10.90738281 29.50550781 -11.43976563 30.63601562 -11.98828125 31.80078125 C-13.54139982 35.05143825 -15.10512521 38.29697843 -16.66796875 41.54296875 C-17.63312929 43.54932681 -18.59796745 45.55583997 -19.5625 47.5625 C-20.04227295 48.56015381 -20.5220459 49.55780762 -21.01635742 50.58569336 C-24.23381667 57.30906606 -27.29525528 64.05134643 -30 71 C-30.66 71 -31.32 71 -32 71 C-32.17015625 71.67546875 -32.3403125 72.3509375 -32.515625 73.046875 C-34.92267135 81.90685413 -34.92267135 81.90685413 -39 85 C-37.72020361 80.0017902 -35.97017495 75.63202124 -33.5625 71.0625 C-29.40079262 62.96701633 -25.61283035 54.7166223 -21.85766602 46.42602539 C-18.07816322 38.09764311 -18.07816322 38.09764311 -16.01953125 34.0390625 C-13.32628072 28.72884977 -10.90117351 23.29441676 -8.4375 17.875 C-2.66544591 5.18729878 -2.66544591 5.18729878 0 0 Z " fill="#4C307C" transform="translate(139,53)"/>
<path d="M0 0 C0.33 0.66 0.66 1.32 1 2 C-0.05577618 4.51852754 -1.16330646 6.93311378 -2.375 9.375 C-5.15829179 15.01039211 -5.15829179 15.01039211 -7 21 C-6.01 21 -5.02 21 -4 21 C-5.54545146 26.47932789 -8.15543212 31.11429181 -11 36 C-11.66 35.67 -12.32 35.34 -13 35 C-15.2979381 37.09094209 -16.5815388 38.88806243 -17.75390625 41.7578125 C-18.05103516 42.46550781 -18.34816406 43.17320313 -18.65429688 43.90234375 C-18.95400391 44.63582031 -19.25371094 45.36929688 -19.5625 46.125 C-22.73318753 53.86659377 -22.73318753 53.86659377 -25 55 C-22.71368312 47.33411401 -19.43036029 40.26463604 -15.98681641 33.07080078 C-14.98446593 30.96740227 -13.99609861 28.85795714 -13.01171875 26.74609375 C-8.81757787 17.75573833 -4.48712218 8.84804405 0 0 Z " fill="#23153D" transform="translate(114,71)"/>
<path d="M0 0 C2.375 0.6875 2.375 0.6875 5 2 C6.3125 4.625 6.3125 4.625 7 7 C7.66 7 8.32 7 9 7 C15.36113848 16.326222 21.01395261 28.83094139 23 40 C20.27821353 37.62916021 19.11230393 35.3466216 17.8125 32 C17.46832031 31.13375 17.12414062 30.2675 16.76953125 29.375 C16 27 16 27 16 24 C15.34 24 14.68 24 14 24 C12.37890625 21.734375 12.37890625 21.734375 10.5625 18.75 C8.07891196 14.6882435 8.07891196 14.6882435 5.34375 10.796875 C3.7383435 8.65011049 2.93881793 6.50351447 2 4 C1.34786461 2.65949948 0.68620031 1.32338632 0 0 Z " fill="#9471D2" transform="translate(154,32)"/>
<path d="M0 0 C0.33 0.66 0.66 1.32 1 2 C-0.0063849 4.38868416 -1.06517871 6.63987598 -2.25 8.9375 C-2.56324219 9.57107422 -2.87648438 10.20464844 -3.19921875 10.85742188 C-4.83058573 14.07615631 -6.47044033 16.47738967 -9 19 C-9.90368671 20.88451741 -10.73060499 22.8067844 -11.5 24.75 C-11.92667969 25.8121875 -12.35335937 26.874375 -12.79296875 27.96875 C-13.19128906 28.9690625 -13.58960937 29.969375 -14 31 C-14.59839345 32.4191149 -15.20127616 33.83636383 -15.8125 35.25 C-16.4003125 36.61125 -16.4003125 36.61125 -17 38 C-17.66 38 -18.32 38 -19 38 C-19.33 39.98 -19.66 41.96 -20 44 C-20.66 44 -21.32 44 -22 44 C-22.33 44.66 -22.66 45.32 -23 46 C-22.48505677 40.44908655 -20.36325281 36.51162618 -17.6875 31.75 C-14.62588666 26.17774343 -11.87511453 20.73771618 -9.8515625 14.6875 C-9 13 -9 13 -6 12 C-5.30562253 10.00945124 -4.64389782 8.00744615 -4 6 C-2.71927629 3.9659094 -1.39712274 1.95597184 0 0 Z " fill="#270366" transform="translate(122,71)"/>
<path d="M0 0 C7.10804546 0.91821256 14.07613043 1.95932858 21.0625 3.5625 C27.69132038 5.04891725 34.22296737 5.67353165 41 6 C41 6.33 41 6.66 41 7 C38.14576808 7.02718316 35.29179985 7.04692705 32.4375 7.0625 C31.23770508 7.07506836 31.23770508 7.07506836 30.01367188 7.08789062 C25.23010639 7.10741538 20.74143604 6.70037625 16 6 C12.62395508 5.97302247 9.26506315 6.06206212 5.890625 6.16015625 C3 6 3 6 0 4 C0 2.68 0 1.36 0 0 Z " fill="#434343" transform="translate(146,278)"/>
<path d="M0 0 C0.66 0 1.32 0 2 0 C2.32613281 0.80824219 2.65226563 1.61648437 2.98828125 2.44921875 C3.42527344 3.51785156 3.86226562 4.58648437 4.3125 5.6875 C4.74175781 6.74324219 5.17101562 7.79898438 5.61328125 8.88671875 C7.75080657 13.68561363 10.43541288 17.701371 13.6875 21.8125 C14.31011719 22.60269531 14.93273437 23.39289063 15.57421875 24.20703125 C16.04472656 24.79871094 16.51523438 25.39039063 17 26 C17.33 25.01 17.66 24.02 18 23 C18.66 23 19.32 23 20 23 C20.33 26.3 20.66 29.6 21 33 C9.9207468 26.66899817 3.959769 13.70233409 0 2 C0 1.34 0 0.68 0 0 Z " fill="#805EBB" transform="translate(194,111)"/>
<path d="M0 0 C2.3125 0.3125 2.3125 0.3125 3.3125 1.3125 C3.67147436 7.77403846 3.67147436 7.77403846 1.3125 11.3125 C0.9825 9.6625 0.6525 8.0125 0.3125 6.3125 C-2.06652674 6.19550552 -2.06652674 6.19550552 -4.6875 7.3125 C-6.45678779 9.74856584 -7.60343885 12.43963374 -8.8125 15.1875 C-9.4762707 16.64574529 -10.14537126 18.1015787 -10.8203125 19.5546875 C-11.10793457 20.2029248 -11.39555664 20.85116211 -11.69189453 21.51904297 C-12.7801703 23.4794338 -14.03961267 24.80537819 -15.6875 26.3125 C-9.32462499 1.08425872 -9.32462499 1.08425872 0 0 Z " fill="#36058B" transform="translate(138.6875,43.6875)"/>
<path d="M0 0 C0.75 1.5625 0.75 1.5625 1 4 C0.0409375 5.36125 0.0409375 5.36125 -0.9375 6.75 C-4.6625031 12.54871616 -3.28518121 20.4012236 -3 27 C-0.7522025 24.94766315 0.0022242 23.99332739 1 21 C1.66 21 2.32 21 3 21 C2.60404157 22.48484412 2.18249294 23.9628831 1.75 25.4375 C1.40195313 26.67306641 1.40195313 26.67306641 1.046875 27.93359375 C0 30 0 30 -2.109375 30.78515625 C-2.73328125 30.85605469 -3.3571875 30.92695313 -4 31 C-7.50628147 25.74057779 -6.51661551 19.11943377 -6 13 C-4.70671445 8.15017919 -2.77530415 4.16295622 0 0 Z " fill="#250460" transform="translate(98,117)"/>
<path d="M0 0 C3.52387645 4.11118919 6 7.46508112 6 13 C6.66 13 7.32 13 8 13 C8.25652344 13.63421875 8.51304687 14.2684375 8.77734375 14.921875 C11.59851482 21.79907315 14.57681868 28.5957555 17.625 35.375 C18.20109009 36.65842285 18.20109009 36.65842285 18.78881836 37.96777344 C19.16014893 38.79051758 19.53147949 39.61326172 19.9140625 40.4609375 C20.26758789 41.24436523 20.62111328 42.02779297 20.98535156 42.83496094 C21.87158046 44.72598064 22.84683806 46.57475843 23.8359375 48.4140625 C25 51 25 51 24 54 C19.8040715 45.7955542 15.73820468 37.6270805 12.28125 29.078125 C10.75261065 25.40566217 9.11328218 21.7947223 7.4375 18.1875 C7.15640381 17.57704834 6.87530762 16.96659668 6.58569336 16.33764648 C5.12774648 13.22122673 3.56390376 10.24084038 1.78515625 7.30078125 C0 4 0 4 0 0 Z " fill="#817792" transform="translate(166,35)"/>
<path d="M0 0 C1.98 0.99 1.98 0.99 4 2 C4 2.66 4 3.32 4 4 C5.0828125 4.0309375 5.0828125 4.0309375 6.1875 4.0625 C10.37265997 5.45755332 11.74976898 8.3590012 14 12 C14.53625 12.78375 15.0725 13.5675 15.625 14.375 C20.44787467 23.58230619 20.44787467 23.58230619 19.578125 28.27734375 C19.38734375 28.84582031 19.1965625 29.41429688 19 30 C18.68546875 29.28714844 18.3709375 28.57429688 18.046875 27.83984375 C13.72122022 17.14549693 13.72122022 17.14549693 6 9 C6 8.34 6 7.68 6 7 C5.38125 6.773125 4.7625 6.54625 4.125 6.3125 C1.38589791 4.62070165 0.94975528 3.00755839 0 0 Z " fill="#2F0579" transform="translate(151,37)"/>
<path d="M0 0 C0.66 0 1.32 0 2 0 C1.99363525 0.71019287 1.98727051 1.42038574 1.98071289 2.15209961 C1.97195111 5.41493269 2.01685775 8.67499224 2.0625 11.9375 C2.05154297 13.05447266 2.04058594 14.17144531 2.02929688 15.32226562 C2.19896638 23.58759456 4.16997343 28.12627436 10 34 C9.67 34.66 9.34 35.32 9 36 C5.02778602 32.91050024 2.31830693 30.55678236 0 26 C-0.34057617 23.0456543 -0.34057617 23.0456543 -0.29296875 19.82421875 C-0.28330078 18.66728516 -0.27363281 17.51035156 -0.26367188 16.31835938 C-0.23853516 15.12017578 -0.21339844 13.92199219 -0.1875 12.6875 C-0.17396484 11.46998047 -0.16042969 10.25246094 -0.14648438 8.99804688 C-0.11119261 5.99824655 -0.06188481 2.99935025 0 0 Z " fill="#6F3FC2" transform="translate(148,3)"/>
<path d="M0 0 C0.33 0 0.66 0 1 0 C1.30497051 8.99663016 1.30497051 8.99663016 -1 13 C-1.99 13.33 -2.98 13.66 -4 14 C-4.28875 14.5775 -4.5775 15.155 -4.875 15.75 C-7.03111669 20.06223337 -10.51587294 23.26928429 -15 25 C-18.015625 25.1953125 -18.015625 25.1953125 -21.25 25.125 C-22.32765625 25.10695313 -23.4053125 25.08890625 -24.515625 25.0703125 C-25.33546875 25.04710937 -26.1553125 25.02390625 -27 25 C-27 24.67 -27 24.34 -27 24 C-26.443125 23.97421875 -25.88625 23.9484375 -25.3125 23.921875 C-18.24930044 23.39690747 -12.76961373 21.69672916 -7.625 16.6875 C-5.67474823 13.46208361 -4.8613087 10.66056196 -4 7 C-2.68 7 -1.36 7 0 7 C0 4.69 0 2.38 0 0 Z " fill="#636363" transform="translate(203,258)"/>
<path d="M0 0 C1.04475584 2.69736963 1.06611688 3.8153191 0.07421875 6.5859375 C-0.61220703 7.96652344 -0.61220703 7.96652344 -1.3125 9.375 C-2.73930221 12.32633061 -4.01751379 15.05582522 -5 18.1875 C-6.18086167 21.50867344 -7.9092485 24.15458987 -9.82421875 27.09765625 C-11.18872643 29.30534808 -12.15707797 31.5478632 -13 34 C-14.40907283 31.18185434 -13.50872691 29.82722796 -12.5625 26.875 C-12.27503906 25.96492188 -11.98757812 25.05484375 -11.69140625 24.1171875 C-11.46324219 23.41851562 -11.23507813 22.71984375 -11 22 C-10.34 22 -9.68 22 -9 22 C-8.8453125 20.6696875 -8.8453125 20.6696875 -8.6875 19.3125 C-7.96353911 15.82432483 -6.84972246 14.01436253 -5 11 C-3.90227488 8.38831199 -2.87731755 5.75607234 -1.8671875 3.109375 C-1 1 -1 1 0 0 Z " fill="#3C069B" transform="translate(114,87)"/>
<path d="M0 0 C0.66 0 1.32 0 2 0 C2.33 1.98 2.66 3.96 3 6 C3.99 6.33 4.98 6.66 6 7 C10.06423007 11.78144714 10.7313393 15.95513425 11 22 C11.66 22 12.32 22 13 22 C13.33 24.31 13.66 26.62 14 29 C11.17151315 26.54368248 9.88118078 23.9675774 8.375 20.5625 C7.94960937 19.61503906 7.52421875 18.66757813 7.0859375 17.69140625 C6 15 6 15 5.4765625 12.71484375 C5.31929687 12.14894531 5.16203125 11.58304688 5 11 C4.34 10.67 3.68 10.34 3 10 C2.1484375 7.71484375 2.1484375 7.71484375 1.375 4.9375 C1.11460937 4.01839844 0.85421875 3.09929687 0.5859375 2.15234375 C0.39257812 1.44207031 0.19921875 0.73179688 0 0 Z " fill="#9C7BD5" transform="translate(177,74)"/>
<path d="M0 0 C2.31 1.65 4.62 3.3 7 5 C7 3.35 7 1.7 7 0 C9.69504819 2.69504819 12 6.08360477 12 10 C4.65840708 10.36106195 4.65840708 10.36106195 2.0625 8.9375 C0.48831335 6.06692435 0.30426913 3.2252528 0 0 Z " fill="#5529A2" transform="translate(207,138)"/>
<path d="M0 0 C3.11276387 2.56713572 3.97432056 5.29385545 5.25 9.0625 C7.32898705 14.77652575 9.93732535 19.15864839 13.7421875 23.87890625 C15 26 15 26 14.6953125 28.27734375 C14.46585938 28.84582031 14.23640625 29.41429687 14 30 C10.56866806 27.16027701 9.21585111 24.39780541 7.78125 20.21875 C6.06032937 15.33133541 3.98777721 10.58749908 1.25 6.1875 C0 4 0 4 0 0 Z " fill="#3A0892" transform="translate(192,110)"/>
<path d="M0 0 C2.625 0.375 2.625 0.375 5 1 C4.25 6.75 4.25 6.75 2 9 C1.34 8.01 0.68 7.02 0 6 C-2.31 9.3 -4.62 12.6 -7 16 C-7.33 15.34 -7.66 14.68 -8 14 C-6.85546875 11.25 -6.85546875 11.25 -5.1875 8 C-4.37345703 6.39125 -4.37345703 6.39125 -3.54296875 4.75 C-2 2 -2 2 0 0 Z " fill="#6737BD" transform="translate(135,49)"/>
<path d="M0 0 C1 2 1 2 0.46875 3.890625 C-2.63901555 11.45953787 -6.28117876 18.71766793 -10 26 C-11.00182523 27.99908634 -12.00242645 29.99878862 -13 32 C-13.33 31.34 -13.66 30.68 -14 30 C-13.1796875 27.78515625 -13.1796875 27.78515625 -11.875 25.0625 C-11.40964844 24.07765625 -10.94429688 23.0928125 -10.46484375 22.078125 C-9.98144531 21.06234375 -9.49804688 20.0465625 -9 19 C-8.14244407 17.10569735 -7.28815517 15.20991153 -6.4375 13.3125 C-4.39660719 8.81736901 -2.24081374 4.39863437 0 0 Z " fill="#3A314A" transform="translate(103,94)"/>
<path d="M0 0 C1.33332095 2.6666419 0.67102033 4.16680303 0 7 C-0.66 7 -1.32 7 -2 7 C-1.84402344 7.62648438 -1.68804687 8.25296875 -1.52734375 8.8984375 C-1.33269531 9.71570313 -1.13804688 10.53296875 -0.9375 11.375 C-0.74027344 12.18710938 -0.54304688 12.99921875 -0.33984375 13.8359375 C0 16 0 16 -1 18 C-1.66 18 -2.32 18 -3 18 C-4.85035348 14.29929304 -4.4754747 10.03844746 -4 6 C-2.91546245 3.58465436 -1.72477676 2.0481724 0 0 Z " fill="#6431BE" transform="translate(101,120)"/>
<path d="M0 0 C0.66 0 1.32 0 2 0 C2.08564209 0.59538574 2.17128418 1.19077148 2.25952148 1.80419922 C2.64861253 4.49499629 3.04299001 7.18499232 3.4375 9.875 C3.63956055 11.28072266 3.63956055 11.28072266 3.84570312 12.71484375 C3.97783203 13.61074219 4.10996094 14.50664062 4.24609375 15.4296875 C4.36654053 16.25710449 4.4869873 17.08452148 4.61108398 17.93701172 C4.91256672 20.05327767 4.91256672 20.05327767 6 22 C4.0625 21.6875 4.0625 21.6875 2 21 C0.7937748 17.38132441 0.89183082 14.07493749 0.9375 10.3125 C0.94201172 9.61060547 0.94652344 8.90871094 0.95117188 8.18554688 C0.96293073 6.45699462 0.98086546 4.72848635 1 3 C0.34 2.67 -0.32 2.34 -1 2 C-0.67 1.34 -0.34 0.68 0 0 Z " fill="#270366" transform="translate(143,12)"/>
<path d="M0 0 C0.33 0 0.66 0 1 0 C1 6.93 1 13.86 1 21 C0.67 21 0.34 21 0 21 C-0.84681133 15.91913204 -1.09038099 11.15171623 -1 6 C-1.66 5.67 -2.32 5.34 -3 5 C-2.03114628 3.31503702 -1.03013277 1.64821244 0 0 Z " fill="#3A0793" transform="translate(146,6)"/>
<path d="M0 0 C0.33 0.66 0.66 1.32 1 2 C-2.16589254 7.40839975 -6.17514834 11.04174791 -11 15 C-11.66 14.67 -12.32 14.34 -13 14 C-12.52949219 13.55269531 -12.05898437 13.10539062 -11.57421875 12.64453125 C-8.11060104 9.28130826 -5.40789241 6.21381173 -3 2 C-2.01 1.34 -1.02 0.68 0 0 Z " fill="#363636" transform="translate(205,268)"/>
<path d="M0 0 C2.98941468 1.49470734 3.53778532 4.07557063 5 7 C5.66 7.33 6.32 7.66 7 8 C7.40729228 10.32156597 7.74438677 12.6568787 8 15 C5 14 5 14 3.61328125 11.85546875 C3.18402344 10.97503906 2.75476563 10.09460938 2.3125 9.1875 C1.87550781 8.31480469 1.43851563 7.44210938 0.98828125 6.54296875 C0 4 0 4 0 0 Z " fill="#602EB7" transform="translate(186,96)"/>
<path d="M0 0 C0.66 0 1.32 0 2 0 C2.98459071 2.3937297 3.96278703 4.7897507 4.9375 7.1875 C5.21529297 7.86103516 5.49308594 8.53457031 5.77929688 9.22851562 C7.22621056 12.80221811 8.41163129 16.16443184 9 20 C3.49521678 15.16959193 1.79462872 6.8794101 0 0 Z " fill="#5E2BB9" transform="translate(168,56)"/>
<path d="M0 0 C4.64070578 2.32035289 5.91869251 8.2112038 7.546875 12.81640625 C8.04997373 15.2408217 7.78006002 16.67563198 7 19 C6.66226563 18.25234375 6.32453125 17.5046875 5.9765625 16.734375 C5.53054687 15.74953125 5.08453125 14.7646875 4.625 13.75 C3.96371094 12.28820312 3.96371094 12.28820312 3.2890625 10.796875 C2.52371753 9.13630833 1.71937769 7.49148977 0.8359375 5.890625 C0 4 0 4 0 0 Z " fill="#3A0890" transform="translate(163,48)"/>
<path d="M0 0 C5.77807024 -0.2358396 10.51324804 0.13216954 16 2 C16 2.33 16 2.66 16 3 C13.89722877 3.22197585 11.79267698 3.42713637 9.6875 3.625 C8.51574219 3.74101562 7.34398437 3.85703125 6.13671875 3.9765625 C3 4 3 4 0 2 C0 1.34 0 0.68 0 0 Z " fill="#3A3A3A" transform="translate(146,280)"/>
<path d="M0 0 C1.91731918 0.11455681 3.8338675 0.24206258 5.75 0.375 C7.35101563 0.47941406 7.35101563 0.47941406 8.984375 0.5859375 C12 1 12 1 16 3 C10.72 3 5.44 3 0 3 C0 2.01 0 1.02 0 0 Z " fill="#626262" transform="translate(147,276)"/>
<path d="M0 0 C0.33 0.66 0.66 1.32 1 2 C-0.07518118 4.44332726 -1.19808566 6.76754523 -2.4375 9.125 C-2.77587891 9.78371094 -3.11425781 10.44242188 -3.46289062 11.12109375 C-4.30149926 12.75106547 -5.14984811 14.37601909 -6 16 C-6.6796875 14.35546875 -6.6796875 14.35546875 -7 12 C-5.8203125 9.23828125 -5.8203125 9.23828125 -4.125 6.3125 C-3.57070312 5.33925781 -3.01640625 4.36601563 -2.4453125 3.36328125 C-1 1 -1 1 0 0 Z " fill="#3A0596" transform="translate(122,71)"/>
<path d="M0 0 C0.75 1.6875 0.75 1.6875 1 4 C-0.30368347 5.68996005 -1.64444707 7.35135455 -3 9 C-4.47188882 11.94377764 -5.75282135 14.95502659 -7 18 C-8.40907283 15.18185434 -7.50872691 13.82722796 -6.5625 10.875 C-6.27503906 9.96492188 -5.98757812 9.05484375 -5.69140625 8.1171875 C-5.46324219 7.41851562 -5.23507813 6.71984375 -5 6 C-4.34 6 -3.68 6 -3 6 C-3 5.34 -3 4.68 -3 4 C-2.34 4 -1.68 4 -1 4 C-0.67 2.68 -0.34 1.36 0 0 Z " fill="#450DA7" transform="translate(108,103)"/>
<path d="M0 0 C0.66 0 1.32 0 2 0 C5 5.625 5 5.625 5 9 C5.66 9 6.32 9 7 9 C7.33 11.31 7.66 13.62 8 16 C5.13437405 13.52093943 3.8382206 10.87838941 2.3125 7.4375 C1.87550781 6.46683594 1.43851563 5.49617188 0.98828125 4.49609375 C0 2 0 2 0 0 Z " fill="#8E69D0" transform="translate(183,87)"/>
<path d="M0 0 C0.33 0 0.66 0 1 0 C1.66 4.29 2.32 8.58 3 13 C2.34 13 1.68 13 1 13 C1 12.34 1 11.68 1 11 C0.34 11 -0.32 11 -1 11 C-1.0270043 9.54176788 -1.04639787 8.08339325 -1.0625 6.625 C-1.07410156 5.81289062 -1.08570312 5.00078125 -1.09765625 4.1640625 C-1 2 -1 2 0 0 Z " fill="#4006A6" transform="translate(96,128)"/>
<path d="M0 0 C0.66 0 1.32 0 2 0 C4.61407872 5.36190101 6.49228528 10.03435204 7 16 C3.8601549 14.43007745 3.57856654 11.77552998 2.375 8.5625 C1.92898437 7.38816406 1.48296875 6.21382813 1.0234375 5.00390625 C0 2 0 2 0 0 Z " fill="#774AC6" transform="translate(194,111)"/>
<path d="M0 0 C0.68359375 1.640625 0.68359375 1.640625 1 4 C-0.21484375 6.796875 -0.21484375 6.796875 -1.9375 9.75 C-2.50339844 10.73484375 -3.06929688 11.7196875 -3.65234375 12.734375 C-4.09707031 13.48203125 -4.54179688 14.2296875 -5 15 C-5.68359375 13.359375 -5.68359375 13.359375 -6 11 C-4.78515625 8.203125 -4.78515625 8.203125 -3.0625 5.25 C-2.49660156 4.26515625 -1.93070312 3.2803125 -1.34765625 2.265625 C-0.90292969 1.51796875 -0.45820312 0.7703125 0 0 Z " fill="#5C27BB" transform="translate(121,76)"/>
<path d="M0 0 C4.1657764 2.77718427 5.53579499 6.05877906 6.6875 10.875 C6.790625 11.57625 6.89375 12.2775 7 13 C2.56398034 9.48177751 1.47966871 5.24609814 0 0 Z " fill="#835BCB" transform="translate(200,123)"/>
<path d="M0 0 C2.375 0.6875 2.375 0.6875 5 2 C6.3125 4.625 6.3125 4.625 7 7 C7.66 7 8.32 7 9 7 C8.67 7.99 8.34 8.98 8 10 C4.71211176 6.88983545 2.16264012 3.98381075 0 0 Z " fill="#A485D9" transform="translate(154,32)"/>
<path d="M0 0 C1.1446875 0.3403125 1.1446875 0.3403125 2.3125 0.6875 C1.9825 2.0075 1.6525 3.3275 1.3125 4.6875 C0.549375 4.460625 -0.21375 4.23375 -1 4 C-1.886875 3.896875 -2.77375 3.79375 -3.6875 3.6875 C-5.5229799 5.02128575 -5.5229799 5.02128575 -6.6875 6.6875 C-6.28750283 4.36751641 -5.78182121 2.82426576 -4.4375 0.875 C-2.6875 -0.3125 -2.6875 -0.3125 0 0 Z " fill="#3E05A3" transform="translate(138.6875,46.3125)"/>
<path d="M0 0 C2.79872437 2.52788007 4.45773019 4.20411134 5 8 C4.01 8.33 3.02 8.66 2 9 C-0.29013653 5.5647952 -0.17842973 4.014669 0 0 Z " fill="#C1AFE1" transform="translate(197,107)"/>
<path d="M0 0 C2.50155273 1.25077637 2.92212548 2.35027305 4.1875 4.8125 C4.55230469 5.49957031 4.91710937 6.18664062 5.29296875 6.89453125 C6.12087895 9.35996549 5.85276722 10.58292094 5 13 C4.15615325 11.58957044 3.32530504 10.17135868 2.5 8.75 C2.0359375 7.96109375 1.571875 7.1721875 1.09375 6.359375 C0 4 0 4 0 0 Z " fill="#280369" transform="translate(171,67)"/>
<path d="M0 0 C1.65 0.33 3.3 0.66 5 1 C4.67 2.98 4.34 4.96 4 7 C3.34 6.01 2.68 5.02 2 4 C0.68 4 -0.64 4 -2 4 C-1.34 2.68 -0.68 1.36 0 0 Z " fill="#551EB6" transform="translate(135,49)"/>
<path d="M0 0 C0.33 0 0.66 0 1 0 C1.48695652 7.42608696 1.48695652 7.42608696 -0.75 10.0625 C-3.3531775 11.14715729 -4.41481845 11.01560704 -7 10 C-6.21625 9.649375 -5.4325 9.29875 -4.625 8.9375 C-1.16452728 6.38334156 -0.85463256 4.11777506 0 0 Z " fill="#17023E" transform="translate(144,30)"/>
<path d="M0 0 C0.7425 0.763125 1.485 1.52625 2.25 2.3125 C4.4263323 4.4393702 6.52167796 6.2559956 9 8 C4.53367217 8.36213469 4.53367217 8.36213469 2.25 6.8125 C0.71161002 4.58183452 0.35994553 2.6635969 0 0 Z " fill="#36058E" transform="translate(207,140)"/>
<path d="M0 0 C3.33557632 2.9905167 5.15083921 5.93184627 7 10 C5.68 10 4.36 10 3 10 C2.01 6.7 1.02 3.4 0 0 Z " fill="#22035A" transform="translate(204,138)"/>
<path d="M0 0 C1.46726798 3.81489674 0.43336419 6.29011622 -1 10 C-1.66 10 -2.32 10 -3 10 C-3.33 10.66 -3.66 11.32 -4 12 C-3.45660208 7.43545749 -2.20536179 4.0271824 0 0 Z " fill="#23035C" transform="translate(103,105)"/>
<path d="M0 0 C2.5654594 2.5654594 2.54046087 4.47686668 3 8 C3.99 8.33 4.98 8.66 6 9 C5.67 10.32 5.34 11.64 5 13 C2.25477117 8.57221156 0.51525603 5.28137429 0 0 Z " fill="#501AAE" transform="translate(177,76)"/>
<path d="M0 0 C0.66 0 1.32 0 2 0 C2 3.63 2 7.26 2 11 C1.67 11 1.34 11 1 11 C0.63890458 9.35567294 0.28629924 7.7094792 -0.0625 6.0625 C-0.25972656 5.14597656 -0.45695313 4.22945312 -0.66015625 3.28515625 C-0.77230469 2.53105469 -0.88445312 1.77695312 -1 1 C-0.67 0.67 -0.34 0.34 0 0 Z M-3 4 C-2.01 4.495 -2.01 4.495 -1 5 C-1.99 5.495 -1.99 5.495 -3 6 C-3 5.34 -3 4.68 -3 4 Z " fill="#1D0644" transform="translate(142,15)"/>
<path d="M0 0 C0.75 1.5625 0.75 1.5625 1 4 C-0.13084437 6.50286409 -1.52139516 8.67007722 -3 11 C-3.75 9.4375 -3.75 9.4375 -4 7 C-2.86915563 4.49713591 -1.47860484 2.32992278 0 0 Z " fill="#612DBD" transform="translate(106,109)"/>
<path d="M0 0 C0.96706319 3.00864103 1.27677226 5.05360248 0 8 C-2.0625 9.25 -2.0625 9.25 -4 10 C-2.8905928 6.51329166 -1.73662334 3.22515763 0 0 Z " fill="#5D27BB" transform="translate(126,65)"/>
<path d="M0 0 C0.33 0 0.66 0 1 0 C1 2.64 1 5.28 1 8 C1.99 8.33 2.98 8.66 4 9 C3.67 9.99 3.34 10.98 3 12 C2.34 12 1.68 12 1 12 C-0.26237731 9.47524538 -0.09856404 7.68799534 -0.0625 4.875 C-0.05347656 3.96492187 -0.04445313 3.05484375 -0.03515625 2.1171875 C-0.02355469 1.41851562 -0.01195313 0.71984375 0 0 Z " fill="#531BB6" transform="translate(97,126)"/>
<path d="M0 0 C1.5625 1.75 1.5625 1.75 3 4 C2.6875 6.25 2.6875 6.25 2 8 C0.62437146 6.71034824 -0.70766393 5.37310707 -2 4 C-2 3.34 -2 2.68 -2 2 C-1.34 2 -0.68 2 0 2 C0 1.34 0 0.68 0 0 Z " fill="#A990D4" transform="translate(209,130)"/>
<path d="M0 0 C0.95465783 2.16967689 1.14401212 3.56328793 0.3984375 5.82421875 C-0.35870385 7.5684743 -1.17609198 9.28627131 -2 11 C-2.95465783 8.83032311 -3.14401212 7.43671207 -2.3984375 5.17578125 C-1.64129615 3.4315257 -0.82390802 1.71372869 0 0 Z " fill="#3A0595" transform="translate(100,115)"/>
<path d="M0 0 C2.0245738 1.93254772 3.42105792 3.63158688 5 6 C4.625 8.1875 4.625 8.1875 4 10 C3.32845067 8.71086513 2.66291141 7.41859796 2 6.125 C1.62875 5.40570313 1.2575 4.68640625 0.875 3.9453125 C0 2 0 2 0 0 Z " fill="#260363" transform="translate(181,90)"/>
<path d="M0 0 C0.62109375 1.796875 0.62109375 1.796875 1 4 C-0.9375 7.25 -0.9375 7.25 -3 10 C-3.33 9.34 -3.66 8.68 -4 8 C-3.22265625 6.0546875 -3.22265625 6.0546875 -2.0625 3.875 C-1.49208984 2.78832031 -1.49208984 2.78832031 -0.91015625 1.6796875 C-0.60980469 1.12539063 -0.30945313 0.57109375 0 0 Z " fill="#5B25BA" transform="translate(131,55)"/>
<path d="" fill="#090909" transform="translate(0,0)"/>
</svg>
